<svg id="Capa_1" enable-background="new 0 0 512 512" height="512" viewBox="0 0 512 512" width="512" xmlns="http://www.w3.org/2000/svg" xmlns:xlink="http://www.w3.org/1999/xlink"><linearGradient id="SVGID_1_" gradientUnits="userSpaceOnUse" x1="256" x2="256" y1="451.75" y2="22.15"><stop offset="0" stop-color="#ffe59a"/><stop offset="1" stop-color="#ffffd5"/></linearGradient><linearGradient id="SVGID_2_" gradientUnits="userSpaceOnUse" x1="255.999" x2="255.999" y1="496.75" y2="15.25"><stop offset="0" stop-color="#fd5900"/><stop offset="1" stop-color="#ffde00"/></linearGradient><g><g><g><path d="m509.898 22.15-253.898 99.6-253.9-99.6c-1.199 2.4-2.1 5.099-2.1 8.1v330c0 8.399 6.599 15 15 15h137.5c7.5 0 13.801-5.402 14.7-12.602 6.901-43.2 45-75.899 88.801-75.899s81.899 32.699 88.801 75.899c.899 7.2 7.2 12.602 14.7 12.602h137.498c8.401 0 15-6.601 15-15v-330c0-3.001-.901-5.7-2.102-8.1zm-187.541 318.77c-11.702-12.387-31.441-11.937-42.422-.308l-38.994 38.745-8.584-8.438c-11.738-12.425-31.566-11.838-42.158-.557-12.323 11.646-12.091 31.35-.293 42.495l29.443 29.414c5.391 6.021 13.301 9.478 21.65 9.478s16.26-3.457 21.094-8.892l59.707-59.722c12.513-11.822 11.827-31.631.557-42.215z" fill="url(#SVGID_1_)"/></g></g><g><g><path d="m264.998 205.004 244.9-182.854c-2.996-4.201-7.5-6.899-12.898-6.899h-482c-5.4 0-9.9 2.699-12.9 6.899l244.902 182.854c5.333 3.998 12.663 3.998 17.996 0zm-8.998 51.746c-58.5 0-109.501 43.5-118.2 100.199-1.5 7.5-1.8 14.401-1.8 19.801 0 66.299 53.699 120 120 120s120-53.701 120-120c0-5.4-.3-12.301-1.802-18.9-8.697-57.6-59.698-101.1-118.198-101.1zm55.499 115.499-60 60c-2.699 3.001-6.599 4.501-10.499 4.501s-7.8-1.5-10.499-4.501l-30-30c-6-5.7-6-15.3 0-21 5.7-5.999 15.299-5.999 20.999 0l19.501 19.2 49.501-49.2c5.7-5.999 15.299-5.999 20.999 0 5.999 5.7 5.999 15.3-.002 21z" fill="url(#SVGID_2_)"/></g></g></g></svg>