<svg id="Capa_1" enable-background="new 0 0 511.925 511.925" height="512" viewBox="0 0 511.925 511.925" width="512" xmlns="http://www.w3.org/2000/svg"><g><path d="m115.552 448.77 30.86 31.85c12.13 12.66 30.52 23.62 50.7 28.43 19.23 4.58 39.24 3.67 57.87-2.6 62.44-21 114.8-52.65 156.81-94.66s73.66-94.37 94.66-156.81c6.27-18.65 7.17-38.66 2.6-57.87-4.9-20.56-16.06-38.86-28.43-50.69l-31.85-30.87c-17.43-17.32-45.54-17.28-62.91.09l-52.93 52.93c-17.41 17.41-17.41 45.59 0 63l16.23 16.24c4.11 4.1 5.4 10.19 3.29 15.53-8.48 21.5-20.01 39.54-34.79 54.32s-32.82 26.31-54.32 34.79c-5.33 2.11-11.43.82-15.53-3.28l-16.24-16.24c-17.41-17.41-45.59-17.41-63 0l-52.93 52.93c-17.34 17.34-17.37 45.53-.09 62.91z" fill="#ff405c"/><path d="m115.552 448.77 30.86 31.85c12.13 12.66 30.52 23.62 50.7 28.43 19.23 4.58 39.24 3.67 57.87-2.6 62.44-21 114.8-52.65 156.81-94.66l-94.13-94.13c-14.78 14.78-32.82 26.31-54.32 34.79-5.33 2.11-11.43.82-15.53-3.28l-16.24-16.24c-17.41-17.41-45.59-17.41-63 0l-52.93 52.93c-17.34 17.34-17.37 45.53-.09 62.91z" fill="#c30047"/><path d="m256.002 0h-241c-8.284 0-15 6.716-15 15v233c0 8.284 6.716 15 15 15h74.738l35.891 28.713c5.478 4.383 13.263 4.383 18.741 0l35.892-28.713h75.738c8.284 0 15-6.716 15-15v-233c0-8.284-6.716-15-15-15z" fill="#ffdd54"/><path d="m256.002 0h-121v295c3.315 0 6.631-1.096 9.371-3.287l35.891-28.713h75.738c8.284 0 15-6.716 15-15v-233c0-8.284-6.716-15-15-15z" fill="#ff9d21"/><path d="m135.002 108.573c-32.659 0-59.229 26.569-59.229 59.229v2.146c0 21.963 20.99 37.806 42.119 31.771.673 0 15.27-5.416 34.221 0 21.117 6.032 42.119-9.797 42.119-31.771v-2.146c-.001-32.659-26.571-59.229-59.23-59.229z" fill="#784033"/><path d="m135.502 108.586v90.741c5.59.045 11.175.837 16.61 2.391 21.117 6.032 42.119-9.797 42.119-31.771v-2.146c0-32.491-26.3-58.944-58.729-59.215z" fill="#61362b"/><path d="m197.932 98.529c-.878-8.621-8.834-14.929-17.86-13.239-8.2 1.702-13.327 9.426-11.78 17.64 1.686 8.133 9.368 13.329 17.64 11.78 8.014-1.68 12.754-8.971 12-16.181z" fill="#61362b"/><path d="m120.292 82.93c1.676 8.086 9.322 13.337 17.64 11.78 8.144-1.707 13.328-9.362 11.78-17.641-1.83-8.764-10.54-13.953-19.07-11.42-7.987 2.612-11.704 10.094-10.35 17.281z" fill="#784033"/><path d="m149.922 78.529c-.602-7.362-7.016-13.527-14.92-13.527v29.998c9.171 0 15.798-7.997 14.92-16.471z" fill="#61362b"/><path d="m77.492 111.6c6.512 5.324 15.974 4.212 21.11-2.09 5.305-6.5 4.217-15.955-2.09-21.11-6.971-5.681-17.218-3.963-21.98 3.271-4.454 6.764-2.726 15.295 2.96 19.929z" fill="#784033"/></g></svg>